<svg width="32" height="32" fill="none" xmlns="http://www.w3.org/2000/svg">
  <circle cx="16" cy="16" r="16" fill="currentColor"/>
  <path d="M14.385 23c.441 0 .781-.184 1.019-.55l7.356-11.67c.083-.136.143-.266.182-.39.039-.125.058-.243.058-.356 0-.305-.094-.554-.282-.746A.974.974 0 0 0 21.99 9c-.21 0-.386.042-.53.127-.138.085-.27.229-.398.432l-6.71 10.89-3.446-4.491c-.232-.311-.519-.466-.861-.466-.304 0-.555.098-.754.296-.193.198-.29.447-.29.746 0 .136.025.268.075.398.05.125.13.254.24.39l4.05 5.153c.282.35.622.525 1.02.525Z" fill="#fff"/>
</svg>
