<svg width="16" height="16" fill="none" xmlns="http://www.w3.org/2000/svg">
  <circle cx="8" cy="8" r="8" fill="currentColor"/>
  <path d="M7.077 12a.653.653 0 0 0 .582-.315l4.204-6.668a1 1 0 0 0 .104-.223.684.684 0 0 0 .033-.203.584.584 0 0 0-.16-.426.557.557 0 0 0-.418-.165c-.12 0-.22.024-.303.073a.745.745 0 0 0-.227.247l-3.834 6.222-1.97-2.566c-.132-.178-.296-.267-.492-.267a.586.586 0 0 0-.43.17.585.585 0 0 0-.166.426c0 .078.014.153.043.228a.874.874 0 0 0 .137.222L6.495 11.7c.16.2.355.3.582.3Z" fill="#fff"/>
</svg>
