<svg width="24" height="24" fill="none" xmlns="http://www.w3.org/2000/svg">
  <path fill-rule="evenodd" clip-rule="evenodd" d="m13.5 6 2.85-2.85 4.5 4.5-13.2 13.2-4.5-4.5 3-3 1.875 1.875a.53.53 0 0 0 .75 0l.6-.6a.53.53 0 0 0 0-.75L7.5 12l1.65-1.65 1.125 1.125a.53.53 0 0 0 .75 0l.6-.6a.53.53 0 0 0 0-.75L10.5 9l1.65-1.65 1.875 1.875a.53.53 0 0 0 .75 0l.6-.6a.53.53 0 0 0 0-.75L13.5 6ZM16.087.412c.228-.227.58-.244.788-.037l6.75 6.75c.207.207.19.56-.038.787L7.912 23.587c-.227.228-.58.245-.787.038l-6.75-6.75c-.207-.207-.19-.56.037-.788L16.088.412Z" fill="currentColor"/>
</svg>
