<svg width="108" height="26" fill="none" xmlns="http://www.w3.org/2000/svg">
  <path d="m15.924 0 2.72 16.376h.158L21.679 0h4.967l-5.008 25.412H16.36L13.4 7.946h-.154l-2.959 17.466H5.008L0 0h5.278L8.08 16.376h.158L11.038 0h4.886ZM38.166 0l7.135 25.412H39.94l-1.537-5.849h-7.253l-1.577 5.849h-4.927L31.78 0h6.387Zm-5.874 15.287h4.966l-2.364-9.075h-.157l-2.445 9.075ZM59.718 15.045h.156V0h4.848v25.412h-4.138L52.07 9.399h-.159v16.013h-4.887V0h5.008l7.684 15.045ZM79.946 15.045h.157V0h4.848v25.412h-4.139L72.299 9.399h-.161v16.013h-4.885V0h5.008l7.685 15.045ZM100.196 0l7.13 25.412h-5.357l-1.538-5.849H93.18l-1.577 5.849h-4.928L93.81 0h6.387Zm-5.874 15.287h4.967l-2.366-9.075h-.154l-2.447 9.075Z" fill="currentColor"/>
</svg>
